<?xml version="1.0" encoding="utf-8"?>
<!-- Generator: Adobe Illustrator 21.1.0, SVG Export Plug-In . SVG Version: 6.00 Build 0)  -->
<svg version="1.1" xmlns="http://www.w3.org/2000/svg" xmlns:xlink="http://www.w3.org/1999/xlink" x="0px" y="0px"
	 viewBox="0 0 512 512" style="enable-background:new 0 0 512 512;" xml:space="preserve">
<style type="text/css">
	.st0{fill:none;stroke:#FFFFFF;stroke-width:2;}
	.st1{fill:none;stroke:#FFFFFF;stroke-width:0.2;}
	.st2{fill:#FFFFFF;}
</style>
<g id="背景">
</g>
<g id="線">
	<g>
		<path class="st0" d="M207.3,421.1c-88.4-5.6-148-60.4-163.6-80l-4.7-6.4c-16.5-22.8-25.8-48.6-25.8-75.9
			c0-93.6,109.2-169.4,243.9-169.4c134.7,0,243.9,75.8,243.9,169.4c0,42.9-23,82.1-60.8,111.9l-2.8,2.3c0,0-46.8,38-96.4,36"/>
		<path class="st0" d="M306.9,345.9c0,0,14.8,52,36,61.6c0,0-94.8,15.2-102.4-76"/>
		
			<rect x="214.5" y="406.8" transform="matrix(5.848713e-02 -0.9983 0.9983 5.848713e-02 -215.9175 612.6584)" class="st1" width="4.7" height="28"/>
	</g>
</g>
<g id="本体">
	<g>
		<path class="st2" d="M338.3,415.5c0,0,18.5-2.5,6-15.8C331.8,386.3,319.7,417.9,338.3,415.5z"/>
		<g>
			<g>
				<path class="st2" d="M107.4,329.1c0.1-7.3-1-26.1-3.3-56.2l-3.3-51.7c0-3.1,1-5.9,2.9-8.4c1.9-2.4,4.4-3.7,7.4-3.7
					c2.3,0,4.6,0.8,7,2.3c2.3,1.6,3.5,3.2,3.7,4.8l3.3,54.1l2.7,57.8c0,8.7-2.9,16.6-8.6,23.6c-6.2,7.7-13.7,11.5-22.6,11.5
					c-14.8,0-27.2-10.3-37.2-31c-0.8-1.7-1.2-3.2-1.2-4.5c0-2.5,1.1-4.7,3.2-6.5c2.2-1.8,4.6-2.7,7.4-2.7c4.1,0,8.3,4.1,12.7,12.2
					c1.1,2.1,3,5.2,5.8,9.2c2.7,3.1,5.8,4.7,9.3,4.7c3,0,5.6-2.1,7.7-6.2C105.9,335.3,107,332.2,107.4,329.1z M108.4,188.6
					c-3.3,0-6.2-1.1-8.5-3.2c-2.4-2.1-3.6-4.6-3.6-7.6c0-3,1.2-5.6,3.6-7.7c2.4-2.1,5.2-3.2,8.5-3.2c3.3,0,6.2,1.1,8.6,3.2
					c2.4,2.1,3.6,4.7,3.6,7.7c0,2.9-1.2,5.5-3.6,7.6C114.5,187.6,111.7,188.6,108.4,188.6z"/>
			</g>
			<g>
				<path class="st2" d="M452.7,312.1c-3.8,0-6.7-1.8-8.8-5.4c-3.6-6.3-9-13.8-16.2-22.4l-18.2-22.6c-4,2.9-10.1,6.9-18.4,12.1
					c-0.8,9.7-1.2,19.1-1.2,28.3c0,2.8-0.9,5.1-2.8,6.8c-1.9,1.7-4.3,2.6-7.2,2.6c-6.9,0-10.4-4.2-10.4-12.7c0-5.2,0.3-12.9,1-23.3
					c0.7-10.3,1.1-18.1,1.1-23.3c0-9.5,0.2-20.3,0.6-32.6c0.4-12.2,0.6-23,0.6-32.4c0-2.8-0.1-6.1-0.4-9.9c-0.3-3.8-0.5-7.1-0.5-9.9
					c0-2.8,0.9-5.1,2.8-6.8c1.9-1.7,4.3-2.6,7.2-2.6c2.9,0,5.3,0.9,7.2,2.6c1.9,1.8,2.8,4,2.8,6.8c0,2.9,0.2,6.3,0.5,10.2
					c0.3,3.9,0.5,7.3,0.5,10.2l-0.6,30.2c-0.4,10.9-0.5,21.8-0.3,32.6c9.3-6.5,18.3-13.6,26.9-21.4l22.6-21.3
					c2.3-2.1,4.7-3.2,7.3-3.2c2.7,0,5.1,1,7.3,2.9c2.2,1.9,3.2,4.2,3.2,6.8c0,2.1-1,4.2-3,6.3c-8.5,9-18.9,18.6-31.3,28.9l22.5,27.9
					c10.5,13.1,15.8,21.6,15.8,25.5c0,2.5-1.1,4.7-3.2,6.5C458.1,311.2,455.6,312.1,452.7,312.1z"/>
			</g>
			<path class="st2" d="M250.4,281.8c-1.7-11.7-5-22-9-29.6c-3.5-25.2-21.7-44.6-43.8-44.8c-24.8-0.2-45.1,23.7-45.4,53.5
				c-0.3,29.8,19.6,54.1,44.4,54.3c8.5,0.1,16.5-2.7,23.3-7.5c4.1,11.4,9.8,19.4,15.5,21.5l0.5,5.2l8.9-0.8l-0.6-6.7
				C250.5,320.1,253.3,302.1,250.4,281.8z"/>
			<path class="st2" d="M346.3,250.9c-7.9-28.7-33.6-46.7-57.6-40.1c-23.9,6.6-36.9,35.1-29.1,63.9c3.5,12.8,10.6,23.5,19.6,30.8
				c4.8,20.1,14,35.5,22.6,38.3l1.3,4.9l8.7-2.3l-1.3-4.9c4.4-4.6,6.8-14.4,6.6-26.7c0.1,0,0.1,0,0.2,0
				C341.1,308.2,354.1,279.6,346.3,250.9z M331.7,297.1C317,304.7,297.9,293,289,271c-8.9-21.9-4.1-45.8,10.7-53.4
				c14.7-7.5,33.9,4.2,42.7,26.1C351.3,265.7,346.5,289.6,331.7,297.1z"/>
			
				<rect x="196.7" y="405.3" transform="matrix(5.842955e-02 -0.9983 0.9983 5.842955e-02 -230.0032 595.8702)" class="st2" width="8.4" height="29.1"/>
			<polygon class="st2" points="225,419.1 224.7,423.5 223.2,423.4 223.5,419 			"/>
			<polygon class="st2" points="228.8,419.3 228.5,423.7 227,423.6 227.2,419.2 			"/>
		</g>
	</g>
</g>
</svg>
